<svg xmlns="http://www.w3.org/2000/svg" xmlns:xlink="http://www.w3.org/1999/xlink" version="1.1" id="Layer_1" x="0px" y="0px" viewBox="0 0 1635.219 53.238" xml:space="preserve" preserveAspectRatio="xMidYMax" enable-background="new 0 0 1635.219 53.238">
  <style type="text/css">
	.st0{fill:url(#SVGID_1_);}
	.st1{fill:url(#SVGID_2_);}
	.st2{fill:url(#SVGID_3_);}
	.st3{fill:url(#SVGID_4_);}
	.st4{fill:url(#SVGID_5_);}
	.st5{fill:url(#SVGID_6_);}
	.st6{fill:url(#SVGID_7_);}
	.st7{fill:url(#SVGID_8_);}
	.st8{fill:url(#SVGID_9_);}
	.st9{fill:url(#SVGID_10_);}
  </style>
  <linearGradient id="SVGID_1_" gradientUnits="userSpaceOnUse" x1="-1706.5006" y1="30.0622" x2="-1.195265e-06" y2="30.0622" gradientTransform="matrix(0.092 0 0 1 1635.219 -2.6242)">
    <stop offset="0.1247" stop-color="#2D8FCE"/>
    <stop offset="1" stop-color="#2D8FCE"/>
  </linearGradient>
  <polygon class="st0" points="1478.211 53.665 1635.219 53.665 1514.417 1.212 "/>
  <linearGradient id="SVGID_2_" gradientUnits="userSpaceOnUse" x1="-2513.1462" y1="34.2237" x2="-381.9539" y2="34.2237" gradientTransform="matrix(0.092 0 0 1 1635.219 -2.6242)">
    <stop offset="0.1325" stop-color="#003976"/>
    <stop offset="1" stop-color="#2D8FCE"/>
  </linearGradient>
  <polygon class="st1" points="1403.995 53.665 1434.062 9.535 1600.077 53.665 "/>
  <linearGradient id="SVGID_3_" gradientUnits="userSpaceOnUse" x1="-5297.8511" y1="29.3183" x2="-1663.9272" y2="29.3183" gradientTransform="matrix(0.092 0 0 1 1635.219 -2.6242)">
    <stop offset="0.1863" stop-color="#EEB310"/>
    <stop offset="1" stop-color="#F2ED69"/>
  </linearGradient>
  <path class="st2" d="M1147.786 53.383l285.43-53.659 48.912 53.659C1482.128 53.383 1148.421 54.018 1147.786 53.383z"/>
  <linearGradient id="SVGID_4_" gradientUnits="userSpaceOnUse" x1="-7578.2627" y1="32.636" x2="-4212.627" y2="32.636" gradientTransform="matrix(0.092 0 0 1 1635.219 -2.6242)">
    <stop offset="0.1325" stop-color="#003976"/>
    <stop offset="1" stop-color="#2D8FCE"/>
  </linearGradient>
  <path class="st3" d="M937.975 53.242l131.042-46.883 178.616 46.883C1247.634 53.242 938.928 54.195 937.975 53.242z"/>
  <linearGradient id="SVGID_5_" gradientUnits="userSpaceOnUse" x1="-10130.3955" y1="38.1407" x2="-5891.2056" y2="38.1407" gradientTransform="matrix(0.092 0 0 1 1635.219 -2.6242)">
    <stop offset="0.1863" stop-color="#EEB310"/>
    <stop offset="1" stop-color="#F2ED69"/>
  </linearGradient>
  <polygon class="st4" points="703.164 53.665 875.099 17.369 1093.194 53.665 "/>
  <linearGradient id="SVGID_6_" gradientUnits="userSpaceOnUse" x1="-10032.5967" y1="30.0622" x2="-8326.0957" y2="30.0622" gradientTransform="matrix(0.092 0 0 1 1635.219 -2.6242)">
    <stop offset="0.1247" stop-color="#2D8FCE"/>
    <stop offset="1" stop-color="#2D8FCE"/>
  </linearGradient>
  <polygon class="st5" points="712.162 53.665 869.17 53.665 748.369 1.212 "/>
  <linearGradient id="SVGID_7_" gradientUnits="userSpaceOnUse" x1="-10839.2305" y1="34.2237" x2="-8708.0391" y2="34.2237" gradientTransform="matrix(0.092 0 0 1 1635.219 -2.6242)">
    <stop offset="0.1325" stop-color="#003976"/>
    <stop offset="1" stop-color="#2D8FCE"/>
  </linearGradient>
  <polygon class="st6" points="637.947 53.665 668.014 9.535 834.029 53.665 "/>
  <linearGradient id="SVGID_8_" gradientUnits="userSpaceOnUse" x1="-13623.9365" y1="29.3183" x2="-9990.0127" y2="29.3183" gradientTransform="matrix(0.092 0 0 1 1635.219 -2.6242)">
    <stop offset="0.1247" stop-color="#2D8FCE"/>
    <stop offset="1" stop-color="#2D8FCE"/>
  </linearGradient>
  <path class="st7" d="M381.738 53.383l285.43-53.659 48.912 53.659C716.08 53.383 382.373 54.018 381.738 53.383z"/>
  <linearGradient id="SVGID_9_" gradientUnits="userSpaceOnUse" x1="-15904.3467" y1="32.636" x2="-12538.7002" y2="32.636" gradientTransform="matrix(0.092 0 0 1 1635.219 -2.6242)">
    <stop offset="0.1863" stop-color="#EEB310"/>
    <stop offset="1" stop-color="#F2ED69"/>
  </linearGradient>
  <path class="st8" d="M171.927 53.242L302.969 6.359l178.617 46.883C481.586 53.242 172.88 54.195 171.927 53.242z"/>
  <linearGradient id="SVGID_10_" gradientUnits="userSpaceOnUse" x1="-17773.002" y1="38.1407" x2="-13533.8008" y2="38.1407" gradientTransform="matrix(0.092 0 0 1 1635.219 -2.6242)">
    <stop offset="0.1325" stop-color="#003976"/>
    <stop offset="1" stop-color="#2D8FCE"/>
  </linearGradient>
  <polygon class="st9" points="0 53.665 171.935 17.369 390.031 53.665 "/>
</svg>