<svg id="Layer_1" data-name="Layer 1" xmlns="http://www.w3.org/2000/svg" viewBox="0 0 430.12201 125.55899"><defs><style>.cls-1{fill:#ddd;}.cls-2{fill:#efab00;}</style></defs><title>logo_grey</title><path class="cls-1" d="M6.707,58.648c0-12.023,0-14.182-.154-16.648-0.154-2.621-.772-3.854-3.315-4.395a14.44263,14.44263,0,0,0-2.621-.23A0.539,0.539,0,0,1,0,36.912c0-.461.386-0.617,1.234-0.617,3.469,0,8.016.232,8.479,0.232,0.693,0,5.164-.232,7.476-0.232,0.848,0,1.233.156,1.233,0.617a0.53859,0.53859,0,0,1-.616.463,11.46286,11.46286,0,0,0-1.928.23c-2.081.387-2.697,1.697-2.852,4.395-0.154,2.467-.154,4.625-0.154,16.648v4.625h0.309c1.311-1.465,15.262-15.646,18.037-18.652,2.158-2.236,4.162-4.24,4.162-5.551a1.51475,1.51475,0,0,0-1.002-1.619,0.827,0.827,0,0,1-.694-0.615c0-.385.386-0.541,0.925-0.541,1.542,0,3.932.232,5.781,0.232,0.386,0,5.473-.232,7.4-0.232,0.848,0,1.156.156,1.156,0.541s-0.154.539-.771,0.539a11.40759,11.40759,0,0,0-4.316,1.078c-3.16,1.389-4.855,3.314-8.324,6.629-1.928,1.852-15.34,14.955-16.958,16.881,2.004,2.236,18.036,18.809,21.196,21.736,6.476,6.013,7.785,7.247,11.486,8.788a14.2023,14.2023,0,0,0,4.778,1.002c0.54,0,1.002.154,1.002,0.463,0,0.385-.386.617-1.696,0.617H51.412c-2.157,0-3.622,0-5.318-.154-4.085-.387-6.013-2.082-9.327-4.703-3.469-2.851-19.809-20.503-23.51-25.05H12.872v7.553c0,7.4,0,13.488.385,16.726,0.232,2.236.694,3.932,3.007,4.24a26.49356,26.49356,0,0,0,3.007.309,0.50041,0.50041,0,0,1,.615.463c0,0.385-.385.617-1.232,0.617-3.777,0-8.248-.232-8.864-0.232-0.617,0-5.087.232-7.399,0.232-0.849,0-1.234-.154-1.234-0.617a0.50178,0.50178,0,0,1,.617-0.463,11.83313,11.83313,0,0,0,2.312-.309c1.541-.309,1.927-2.004,2.235-4.24,0.386-3.237.386-9.325,0.386-16.726V58.648Z"/><path class="cls-1" d="M58.504,58.648c0-12.023,0-14.182-.154-16.648-0.154-2.621-.771-3.854-3.315-4.395a14.43465,14.43465,0,0,0-2.621-.23,0.53748,0.53748,0,0,1-.616-0.463c0-.461.386-0.617,1.233-0.617,1.773,0,3.854,0,5.55.078l3.161,0.154c0.539,0,21.563,0,23.335-.076a20.5295,20.5295,0,0,0,3.314-.387,6.12361,6.12361,0,0,1,1.079-.385c0.23,0,.309.309,0.309,0.693,0,0.539-.386,1.465-0.617,3.623-0.077.771-.23,4.162-0.385,5.086a0.8977,0.8977,0,0,1-.54.848c-0.463,0-.616-0.385-0.616-1a13.07727,13.07727,0,0,0-.463-3.588c-0.539-1.233-2.123-1.346-6.285-1.809-1.288-.152-14.584-0.23-15.432-0.23-0.309,0-.463.23-0.463,0.77V61.347c0,0.539.077,0.77,0.463,0.77,1.002,0,16.167,0,17.939-.154,1.85-.154,2.93-0.307,3.623-1.078a2.34682,2.34682,0,0,1,1.156-1.002c0.231,0,.385.154,0.385,0.617,0,0.461-.385,1.771-0.616,4.314-0.154,1.543-.308,4.395-0.308,4.934,0,0.617,0,1.465-.54,1.465a0.57638,0.57638,0,0,1-.54-0.693,7.84286,7.84286,0,0,0-.309-2.543c-0.308-1.08-1.813-2.391-4.819-2.699-2.081-.23-14.585-0.385-15.896-0.385a0.4866,0.4866,0,0,0-.539.541v6.781c0,2.621-.076,11.562,0,13.182,0.231,5.317,1.388,6.319,8.941,6.319,2.004,0,11.08,0,13.084-.848s2.93-2.389,3.469-5.55c0.154-.848.309-1.156,0.693-1.156,0.463,0,.463.617,0.463,1.156,0,0.617-.617,5.858-1.002,7.478C90.085,94.8,89.469,94.8,86.463,94.8c-5.781,0-15.705-.154-18.711-0.23-3.006-.154-4.856-0.232-6.012-0.232-0.154,0-1.465,0-3.084.078-1.541,0-3.314.154-4.471,0.154-0.848,0-1.233-.154-1.233-0.617a0.50133,0.50133,0,0,1,.616-0.463,11.823,11.823,0,0,0,2.312-.309c1.542-.309,1.928-2.004,2.235-4.24,0.386-3.237.386-9.325,0.386-16.726V58.648h0.003Z"/><path class="cls-1" d="M391.111,58.648c0-12.023,0-14.182-.154-16.648-0.154-2.621-.772-3.854-3.315-4.395a14.43469,14.43469,0,0,0-2.621-.23,0.53748,0.53748,0,0,1-.616-0.463c0-.461.385-0.617,1.233-0.617,1.772,0,3.853,0,5.55.078l3.16,0.154c0.539,0,21.562,0,23.336-.076a20.5295,20.5295,0,0,0,3.314-.387,6.09512,6.09512,0,0,1,1.079-.385c0.23,0,.308.309,0.308,0.693,0,0.539-.386,1.465-0.616,3.623-0.077.771-.232,4.162-0.386,5.086a0.89557,0.89557,0,0,1-.539.848c-0.463,0-.617-0.385-0.617-1a8.26719,8.26719,0,0,0-.462-2.775c-0.54-1.234-2.123-2.158-6.285-2.621-1.311-.154-14.584-0.23-15.432-0.23-0.309,0-.463.23-0.463,0.77V61.348c0,0.539.077,0.77,0.463,0.77,1.002,0,16.166,0,17.939-.154,1.85-.154,2.93-0.307,3.623-1.078a2.34676,2.34676,0,0,1,1.156-1.002c0.232,0,.385.154,0.385,0.617,0,0.461-.385,1.771-0.616,4.314-0.154,1.543-.309,4.395-0.309,4.934,0,0.617,0,1.465-.54,1.465a0.57627,0.57627,0,0,1-.539-0.693,7.843,7.843,0,0,0-.309-2.543c-0.308-1.08-1.814-2.391-4.819-2.699-2.081-.23-14.585-0.385-15.896-0.385a0.4866,0.4866,0,0,0-.539.541v6.781c0,2.621-.077,11.562,0,13.182,0.231,5.317,1.388,6.319,8.941,6.319,2.004,0,11.079,0,13.084-.848,2.004-.848,2.929-2.389,3.469-5.55,0.153-.848.308-1.156,0.693-1.156,0.462,0,.462.617,0.462,1.156a75.31073,75.31073,0,0,1-1.002,7.478c-0.539,2.004-1.155,2.004-4.162,2.004-5.781,0-15.704-.154-18.71-0.23-3.007-.154-4.857-0.232-6.013-0.232-0.154,0-1.465,0-3.084.078-1.541,0-3.314.154-4.47,0.154-0.849,0-1.233-.154-1.233-0.617a0.50132,0.50132,0,0,1,.616-0.463,11.83355,11.83355,0,0,0,2.312-.309c1.542-.309,1.927-2.004,2.235-4.24,0.386-3.237.386-9.325,0.386-16.726V58.648h0.003Z"/><path class="cls-1" d="M101.59,84.086c0.154,6.321.926,8.325,3.007,8.94a16.81925,16.81925,0,0,0,3.854.463,0.49976,0.49976,0,0,1,.616.463c0,0.463-.462.617-1.388,0.617-4.393,0-7.477-.232-8.17-0.232s-3.932.232-7.4,0.232c-0.771,0-1.232-.078-1.232-0.617a0.49932,0.49932,0,0,1,.616-0.463,11.006,11.006,0,0,0,3.16-.463c1.927-.539,2.312-2.775,2.312-9.788L97.042,39.07c0-3.006.231-3.854,0.848-3.854s1.928,1.695,2.698,2.467c1.155,1.31,12.642,13.719,24.512,26.439,7.631,8.17,16.032,17.572,18.499,20.117l-0.848-39.158c-0.077-5.01-.617-6.705-3.006-7.322a20.48464,20.48464,0,0,0-3.777-.385c-0.539,0-.617-0.232-0.617-0.539,0-.463.617-0.541,1.542-0.541,3.469,0,7.169.232,8.017,0.232s3.391-.232,6.552-0.232c0.848,0,1.388.078,1.388,0.541a0.69643,0.69643,0,0,1-.848.539,6.83041,6.83041,0,0,0-1.851.23c-2.544.541-2.852,2.236-2.852,6.861l-0.154,45.169c0,5.086-.154,5.473-0.694,5.473-0.616,0-1.541-.848-5.627-4.934-0.848-.771-11.947-12.101-20.117-20.888-8.941-9.637-17.652-19.348-20.118-22.123Z"/><path class="cls-1" d="M180.289,72.215c0,7.4,0,13.488.385,16.726,0.23,2.236.693,3.932,3.006,4.24a33.70783,33.70783,0,0,0,3.469.309,0.50131,0.50131,0,0,1,.617.463c0,0.385-.386.617-1.233,0.617-4.239,0-9.096-.232-9.481-0.232s-5.241.232-7.554,0.232c-0.848,0-1.233-.154-1.233-0.617a0.50178,0.50178,0,0,1,.617-0.463,11.84327,11.84327,0,0,0,2.312-.309c1.541-.309,1.927-2.004,2.234-4.24,0.387-3.237.387-9.325,0.387-16.726V39.609l-11.408.154c-4.779.078-6.629,0.617-7.863,2.467a13.623,13.623,0,0,0-1.31,2.391,0.8518,0.8518,0,0,1-.77.769c-0.233,0-.386-0.23-0.386-0.693,0-.771,1.542-7.398,1.695-8.016,0.155-.463.463-1.465,0.77-1.465,0.54,0,1.311.771,3.393,0.926,2.234,0.23,5.164.385,6.089,0.385H192.93a30.84931,30.84931,0,0,0,5.473-.385c1.156-.154,1.85-0.387,2.158-0.387,0.386,0,.386.463,0.386,0.926,0,2.312-.232,7.631-0.232,8.479,0,0.693-.231,1.002-0.539,1.002-0.387,0-.54-0.232-0.617-1.311l-0.077-.848c-0.231-2.312-2.081-4.086-9.48-4.24l-9.712-.154V72.215h-0.001Z"/><path class="cls-1" d="M221.468,93.509c-1.27-.553-1.361-0.869-1.361-3.008,0-3.958.363-7.126,0.454-8.392,0.09-.871.272-1.268,0.726-1.268,0.545,0,.636.238,0.636,0.871a12.17923,12.17923,0,0,0,.273,2.93c1.361,5.858,7.352,8.075,13.435,8.075,8.714,0,12.98-5.462,12.98-10.53,0-5.463-2.633-9.441-10.438-15.062l-4.085-2.93c-9.623-6.889-11.801-10.984-11.801-16.369,0-8.471,7.262-14.25,18.79-14.25a40.13793,40.13793,0,0,1,8.441.791,5.55687,5.55687,0,0,0,2.244.1c0.726,0,.907.158,0.907,0.555,0,0.396.893,3.508,1.773,8.688,0.212,1.25-.181,1.822-0.636,1.822-0.544,0-.635-0.396-0.725-1.029-0.091-.949-1.838-3.402-2.383-4.273-0.544-.871-2.995-3.881-11.347-3.881-6.263,0-11.164,3.404-11.164,9.184,0,4.514,2.359,6.551,11.074,12.488l2.541,1.742c10.712,7.363,13.253,13.084,13.253,19.418a15.74281,15.74281,0,0,1-7.716,13.143c-3.902,2.373-8.805,3.324-13.706,3.324A31.05186,31.05186,0,0,1,221.468,93.509Z"/><path class="cls-1" d="M280.587,72.215c0,7.4,0,13.488.379,16.726,0.228,2.236.683,3.932,2.956,4.24a32.61458,32.61458,0,0,0,3.411.309,0.49538,0.49538,0,0,1,.606.463c0,0.385-.379.617-1.213,0.617-4.169,0-8.944-.232-9.323-0.232s-5.154.232-7.429,0.232c-0.834,0-1.213-.154-1.213-0.617a0.49535,0.49535,0,0,1,.606-0.463,11.44793,11.44793,0,0,0,2.274-.309c1.516-.309,1.895-2.004,2.198-4.24,0.379-3.237.379-9.325,0.379-16.726V39.609l-11.219.154c-4.699.078-6.078,0.617-7.29,2.467a13.635,13.635,0,0,0-1.289,2.391,0.84413,0.84413,0,0,1-.758.769c-0.228,0-.379-0.23-0.379-0.693,0-.771,1.516-7.398,1.667-8.016,0.152-.463.455-1.465,0.759-1.465,0.53,0,1.289.771,3.335,0.926,2.198,0.23,4.638.385,5.547,0.385h28.425a29.83808,29.83808,0,0,0,5.382-.385c1.138-.154,1.82-0.387,2.123-0.387,0.379,0,.379.463,0.379,0.926,0,2.312-.228,7.631-0.228,8.479,0,0.693-.228,1.002-0.531,1.002-0.379,0-.53-0.232-0.605-1.311l-0.076-.848c-0.228-2.312-2.047-4.086-9.323-4.24l-9.551-.154V72.215H280.587Z"/><path class="cls-1" d="M315.224,38.223c1.064-2.543,1.42-3.006,1.952-3.006,0.531,0,.886.385,1.951,2.775,1.33,2.928,15.257,34.762,20.668,46.479,3.192,6.86,5.766,8.095,7.628,8.556a13.00966,13.00966,0,0,0,3.549.463c0.531,0,.887.076,0.887,0.463,0,0.463-.798.617-1.773,0.617-1.331,0-7.807,0-13.927-.154-1.686-.078-2.662-0.078-2.662-0.541a0.626,0.626,0,0,1,.621-0.539c0.533-.154,1.065-0.848.533-2.08l-8.25-18.962a0.78154,0.78154,0,0,0-.799-0.463h-19.07a0.91887,0.91887,0,0,0-.888.615l-5.322,13.645a14.45324,14.45324,0,0,0-1.242,5.165c0,1.541,1.863,2.234,3.371,2.234h0.888c0.621,0,.886.154,0.886,0.463,0,0.463-.531.617-1.33,0.617-2.129,0-5.943-.232-6.919-0.232s-5.854.232-10.023,0.232c-1.153,0-1.686-.154-1.686-0.617,0-.309.355-0.463,0.799-0.463,0.621,0,1.863-.076,2.572-0.154,4.081-.463,5.855-3.391,7.451-7.245Zm9.225,30.832c0.443,0,.443-0.23.355-0.539l-8.427-20.813q-0.66449-1.734-1.33,0L307.24,68.516c-0.178.385,0,.539,0.267,0.539h16.942Z"/><path class="cls-1" d="M362.262,72.215c0,7.4,0,13.488.386,16.726,0.23,2.236.693,3.932,3.007,4.24a33.66756,33.66756,0,0,0,3.468.309,0.5013,0.5013,0,0,1,.617.463c0,0.385-.386.617-1.233,0.617-4.239,0-9.096-.232-9.481-0.232s-5.241.232-7.554,0.232c-0.848,0-1.233-.154-1.233-0.617a0.50177,0.50177,0,0,1,.617-0.463,11.83355,11.83355,0,0,0,2.312-.309c1.542-.309,1.927-2.004,2.234-4.24,0.387-3.237.387-9.325,0.387-16.726V39.609l-11.409.154c-4.778.078-6.628,0.617-7.862,2.467a13.5527,13.5527,0,0,0-1.31,2.391,0.85413,0.85413,0,0,1-.771.769c-0.232,0-.386-0.23-0.386-0.693,0-.771,1.541-7.398,1.695-8.016,0.154-.463.463-1.465,0.771-1.465,0.54,0,1.31.771,3.392,0.926,2.235,0.23,5.164.385,6.089,0.385h28.905a30.857,30.857,0,0,0,5.473-.385c1.156-.154,1.85-0.387,2.158-0.387,0.386,0,.386.463,0.386,0.926,0,2.312-.232,7.631-0.232,8.479,0,0.693-.231,1.002-0.539,1.002-0.387,0-.54-0.232-0.617-1.311l-0.077-.848c-0.231-2.312-2.081-4.086-9.48-4.24l-9.713-.154V72.215h0Z"/><path class="cls-1" d="M33.75,113.679c0-3.861,0-4.555-.049-5.346a1.215,1.215,0,0,0-1.064-1.41,4.67718,4.67718,0,0,0-.842-0.074,0.17241,0.17241,0,0,1-.197-0.148c0-.149.123-0.197,0.395-0.197,1.114,0,2.624.072,2.847,0.072s1.707-.072,2.449-0.072c0.272,0,.396.049,0.396,0.197a0.17384,0.17384,0,0,1-.198.148,3.72325,3.72325,0,0,0-.618.074c-0.668.098-.867,0.545-0.916,1.41-0.05.791-.05,1.484-0.05,5.346v3.465c0,3.564.792,5.098,1.856,6.113a4.83945,4.83945,0,0,0,3.736,1.361,5.20493,5.20493,0,0,0,3.887-1.783c1.138-1.41,1.434-3.514,1.434-6.062v-3.094c0-3.861,0-4.555-.05-5.346a1.213,1.213,0,0,0-1.063-1.41,4.67718,4.67718,0,0,0-.842-0.074,0.174,0.174,0,0,1-.198-0.148c0-.149.124-0.197,0.396-0.197,1.113,0,2.475.072,2.623,0.072,0.173,0,1.336-.072,2.079-0.072,0.272,0,.396.049,0.396,0.197a0.17285,0.17285,0,0,1-.197.148,3.72116,3.72116,0,0,0-.619.074c-0.668.148-.866,0.545-0.916,1.41-0.049.791-.049,1.484-0.049,5.346v2.648c0,2.672-.297,5.643-2.277,7.4a7.24663,7.24663,0,0,1-5.098,1.83,7.59363,7.59363,0,0,1-5.099-1.758c-1.213-1.162-2.153-2.895-2.153-6.508v-3.612H33.75Z"/><path class="cls-1" d="M78.318,121.847c0.05,2.029.297,2.672,0.965,2.869a5.36244,5.36244,0,0,0,1.238.148,0.16094,0.16094,0,0,1,.197.15c0,0.146-.148.197-0.445,0.197-1.41,0-2.4-.074-2.623-0.074s-1.262.074-2.376,0.074c-0.247,0-.396-0.025-0.396-0.197a0.16045,0.16045,0,0,1,.197-0.15,3.50939,3.50939,0,0,0,1.016-.148c0.618-.172.742-0.891,0.742-3.143l0.024-14.18c0-.967.074-1.238,0.272-1.238a3.07148,3.07148,0,0,1,.866.793c0.371,0.42,4.059,4.404,7.87,8.488,2.449,2.623,5.147,5.643,5.939,6.459l-0.272-12.572c-0.024-1.609-.198-2.152-0.966-2.352a6.66312,6.66312,0,0,0-1.212-.123c-0.173,0-.198-0.074-0.198-0.174,0-.148.198-0.172,0.495-0.172,1.114,0,2.302.072,2.574,0.072s1.089-.072,2.103-0.072c0.273,0,.446.023,0.446,0.172a0.22288,0.22288,0,0,1-.272.174,2.19185,2.19185,0,0,0-.594.074c-0.816.172-.916,0.717-0.916,2.201l-0.049,14.504c0,1.633-.05,1.756-0.223,1.756-0.198,0-.495-0.271-1.807-1.584-0.272-.246-3.836-3.885-6.46-6.705-2.87-3.094-5.667-6.213-6.459-7.104Z"/><path class="cls-1" d="M125.04,118.034c0,2.377,0,4.332.124,5.371,0.074,0.717.223,1.262,0.965,1.361a10.91876,10.91876,0,0,0,1.113.098,0.16107,0.16107,0,0,1,.198.15c0,0.123-.124.197-0.396,0.197-1.361,0-2.921-.074-3.045-0.074-0.123,0-1.683.074-2.425,0.074-0.273,0-.396-0.051-0.396-0.197a0.16013,0.16013,0,0,1,.197-0.15,3.86309,3.86309,0,0,0,.743-0.098c0.495-.1.618-0.645,0.718-1.361,0.123-1.039.123-2.994,0.123-5.371v-4.355c0-3.861,0-4.555-.049-5.346a1.22615,1.22615,0,0,0-.842-1.385,3.26907,3.26907,0,0,0-.768-0.1,0.173,0.173,0,0,1-.197-0.148c0-.149.123-0.197,0.396-0.197,0.816,0,2.376.072,2.499,0.072,0.124,0,1.684-.072,2.426-0.072,0.272,0,.396.049,0.396,0.197a0.17384,0.17384,0,0,1-.198.148,3.72323,3.72323,0,0,0-.618.074c-0.669.123-.867,0.545-0.916,1.41-0.05.791-.05,1.484-0.05,5.346v4.356h0.002Z"/><path class="cls-1" d="M161.22,122.192c1.435-3.316,4.751-11.953,5.296-13.736a3.53548,3.53548,0,0,0,.223-0.939,0.60752,0.60752,0,0,0-.321-0.568,3.10269,3.10269,0,0,0-.941-0.1c-0.148,0-.272-0.025-0.272-0.148,0-.149.148-0.197,0.544-0.197,0.99,0,2.129.072,2.426,0.072,0.148,0,1.213-.072,1.93-0.072,0.273,0,.422.049,0.422,0.172s-0.1.174-.297,0.174a2.24625,2.24625,0,0,0-1.189.297c-0.321.223-.692,0.643-1.36,2.326-0.273.693-1.51,3.662-2.772,6.707-1.51,3.613-2.624,6.287-3.192,7.498-0.693,1.484-.792,1.881-1.039,1.881-0.298,0-.422-0.346-0.892-1.535l-6.063-15.17c-0.545-1.385-.916-1.658-1.782-1.904a3.809,3.809,0,0,0-.94-0.1,0.16429,0.16429,0,0,1-.197-0.174c0-.148.247-0.172,0.643-0.172,1.189,0,2.6.072,2.896,0.072,0.247,0,1.361-.072,2.301-0.072,0.445,0,.668.049,0.668,0.172s-0.073.174-.247,0.174a2.907,2.907,0,0,0-.94.123,0.49831,0.49831,0,0,0-.322.496,9.54645,9.54645,0,0,0,.669,2.053Z"/><path class="cls-1" d="M196.087,113.679c0-3.861,0-4.555-.05-5.346a1.213,1.213,0,0,0-1.064-1.41,4.64985,4.64985,0,0,0-.841-0.074,0.174,0.174,0,0,1-.198-0.148c0-.149.124-0.197,0.396-0.197,0.568,0,1.237,0,1.781.023l1.016,0.049c0.172,0,5.098,0,5.666-.024a6.42666,6.42666,0,0,0,1.065-.125,2.09748,2.09748,0,0,1,.348-0.123c0.074,0,.099.1,0.099,0.223,0,0.174-.124.471-0.198,1.164-0.025.246-.074,1.336-0.123,1.633a0.28792,0.28792,0,0,1-.174.272c-0.148,0-.198-0.123-0.198-0.32a2.65488,2.65488,0,0,0-.148-0.893c-0.173-.395-0.421-0.691-1.757-0.842-0.421-.049-3.118-0.072-3.391-0.072-0.1,0-.148.072-0.148,0.246v6.832c0,0.172.024,0.246,0.148,0.246,0.322,0,3.365,0,3.935-.049a1.65537,1.65537,0,0,0,1.163-.348,0.75624,0.75624,0,0,1,.371-0.32c0.074,0,.125.049,0.125,0.197s-0.125.57-.199,1.387c-0.049.494-.099,1.41-0.099,1.584,0,0.197,0,.471-0.173.471a0.186,0.186,0,0,1-.174-0.223,2.53335,2.53335,0,0,0-.099-0.818,1.22056,1.22056,0,0,0-1.287-.865c-0.669-.074-3.118-0.125-3.539-0.125a0.15618,0.15618,0,0,0-.173.174v2.178c0,0.842-.025,3.713,0,4.232,0.074,1.707.445,2.029,2.871,2.029a7.07428,7.07428,0,0,0,2.375-.273,1.97037,1.97037,0,0,0,1.113-1.781c0.051-.271.1-0.371,0.224-0.371,0.148,0,.148.199,0.148,0.371,0,0.197-.198,1.881-0.321,2.4-0.174.645-.371,0.645-1.337,0.645-1.856,0-3.218-.049-4.183-0.074-0.965-.051-1.559-0.074-1.93-0.074-0.051,0-.471,0-0.99.023-0.495,0-1.064.051-1.436,0.051-0.272,0-.396-0.051-0.396-0.197a0.16157,0.16157,0,0,1,.198-0.15,3.85274,3.85274,0,0,0,.743-0.098c0.494-.1.618-0.645,0.717-1.361,0.124-1.039.124-2.994,0.124-5.371v-4.358h0Z"/><path class="cls-1" d="M233.156,113.679c0-3.861,0-4.555-.049-5.346a1.2137,1.2137,0,0,0-1.065-1.41,4.6691,4.6691,0,0,0-.842-0.074,0.173,0.173,0,0,1-.197-0.148c0-.149.124-0.197,0.395-0.197,1.113,0,2.673.072,2.797,0.072,0.272,0,2.153-.072,2.92-0.072a7.60675,7.60675,0,0,1,4.529,1.088,4.32925,4.32925,0,0,1,1.708,3.365c0,1.832-.768,3.662-2.995,5.717,2.029,2.6,3.713,4.801,5.147,6.336a5.12769,5.12769,0,0,0,3.02,1.783,6.1238,6.1238,0,0,0,.965.072,0.20339,0.20339,0,0,1,.224.15c0,0.146-.148.197-0.594,0.197h-1.758a5.01946,5.01946,0,0,1-2.648-.471c-1.063-.568-1.93-1.781-3.341-3.637-1.039-1.361-2.203-3.021-2.697-3.664a0.395,0.395,0,0,0-.321-0.148l-3.045-.049a0.16446,0.16446,0,0,0-.173.197v0.594c0,2.377,0,4.332.124,5.371,0.074,0.717.223,1.262,0.965,1.361a10.91169,10.91169,0,0,0,1.114.098,0.16014,0.16014,0,0,1,.197.15c0,0.123-.123.197-0.395,0.197-1.361,0-2.92-.074-3.044-0.074-0.025,0-1.585.074-2.326,0.074-0.272,0-.396-0.051-0.396-0.197a0.16057,0.16057,0,0,1,.198-0.15,3.84273,3.84273,0,0,0,.742-0.098c0.495-.1.619-0.645,0.718-1.361,0.123-1.039.123-2.994,0.123-5.371v-4.355Zm1.981,2.154a0.32481,0.32481,0,0,0,.173.297,6.82684,6.82684,0,0,0,2.6.395,3.207,3.207,0,0,0,1.855-.469,4.52408,4.52408,0,0,0,1.51-3.812c0-3.094-1.634-4.949-4.281-4.949a7.48608,7.48608,0,0,0-1.658.148,0.29727,0.29727,0,0,0-.198.297v8.093h-0.001Z"/><path class="cls-1" d="M272.133,124.89c-0.347-.174-0.372-0.271-0.372-0.939,0-1.238.1-2.229,0.124-2.625,0.025-.271.074-0.395,0.198-0.395,0.148,0,.173.074,0.173,0.271a4.31466,4.31466,0,0,0,.075.916c0.37,1.832,2.005,2.523,3.662,2.523a3.3031,3.3031,0,0,0,3.539-3.291c0-1.707-.718-2.697-2.846-4.455l-1.114-.916c-2.623-2.152-3.217-3.688-3.217-5.369,0-2.648,1.98-4.455,5.122-4.455a9.61361,9.61361,0,0,1,2.302.248,3.9701,3.9701,0,0,0,.866.123c0.198,0,.248.049,0.248,0.174,0,0.123-.099.939-0.099,2.623,0,0.397-.05.57-0.174,0.57-0.148,0-.174-0.125-0.198-0.322a4.3311,4.3311,0,0,0-.321-1.238c-0.148-.271-0.817-1.312-3.094-1.312a2.81546,2.81546,0,0,0-3.044,2.873c0,1.41.644,2.301,3.02,4.156l0.692,0.545c2.921,2.301,3.613,3.836,3.613,5.816a5.12668,5.12668,0,0,1-2.103,4.107,6.51618,6.51618,0,0,1-3.738,1.039A7.49693,7.49693,0,0,1,272.133,124.89Z"/><path class="cls-1" d="M311.875,118.034c0,2.377,0,4.332.125,5.371,0.073,0.717.223,1.262,0.965,1.361a10.91815,10.91815,0,0,0,1.113.098,0.16106,0.16106,0,0,1,.198.15c0,0.123-.124.197-0.397,0.197-1.361,0-2.92-.074-3.043-0.074-0.125,0-1.684.074-2.426,0.074-0.272,0-.397-0.051-0.397-0.197a0.16107,0.16107,0,0,1,.198-0.15,3.843,3.843,0,0,0,.742-0.098c0.495-.1.619-0.645,0.719-1.361,0.123-1.039.123-2.994,0.123-5.371v-4.355c0-3.861,0-4.555-.05-5.346a1.22524,1.22524,0,0,0-.842-1.385,3.25522,3.25522,0,0,0-.767-0.1,0.1734,0.1734,0,0,1-.198-0.148c0-.149.124-0.197,0.397-0.197,0.816,0,2.375.072,2.5,0.072,0.123,0,1.682-.072,2.425-0.072,0.272,0,.396.049,0.396,0.197a0.17328,0.17328,0,0,1-.198.148,3.72328,3.72328,0,0,0-.618.074c-0.668.123-.866,0.545-0.916,1.41-0.05.791-.05,1.484-0.05,5.346v4.356h0.001Z"/><path class="cls-1" d="M347.882,118.034c0,2.377,0,4.332.124,5.371,0.074,0.717.223,1.262,0.965,1.361a10.91815,10.91815,0,0,0,1.113.098,0.16106,0.16106,0,0,1,.198.15c0,0.123-.124.197-0.396,0.197-1.361,0-2.921-.074-3.044-0.074-0.124,0-1.684.074-2.426,0.074-0.272,0-.396-0.051-0.396-0.197a0.16107,0.16107,0,0,1,.198-0.15,3.843,3.843,0,0,0,.742-0.098c0.496-.1.619-0.645,0.719-1.361,0.123-1.039.123-2.994,0.123-5.371V107.565l-3.663.051c-1.534.023-2.128,0.197-2.524,0.791a4.44447,4.44447,0,0,0-.421.768,0.2744,0.2744,0,0,1-.247.248c-0.074,0-.123-0.076-0.123-0.223,0-.248.495-2.377,0.544-2.574a0.83719,0.83719,0,0,1,.247-0.471,4.60937,4.60937,0,0,0,1.09.297c0.717,0.074,1.657.123,1.954,0.123h9.281a9.92975,9.92975,0,0,0,1.757-.123c0.371-.049.594-0.123,0.693-0.123,0.123,0,.123.148,0.123,0.297,0,0.742-.073,2.449-0.073,2.721,0,0.225-.074.324-0.174,0.324-0.124,0-.174-0.076-0.198-0.422l-0.024-.271c-0.074-.744-0.668-1.312-3.044-1.361l-3.118-.051v10.468Z"/><path class="cls-1" d="M384.383,118.802a5.26752,5.26752,0,0,0-.569-2.6c-0.173-.395-3.489-5.84-4.355-7.127a6.86229,6.86229,0,0,0-1.684-1.83,2.35513,2.35513,0,0,0-1.064-.396,0.2085,0.2085,0,0,1-.247-0.174c0-.1.099-0.172,0.321-0.172,0.47,0,2.326.072,2.45,0.072,0.173,0,1.114-.072,2.079-0.072,0.272,0,.321.072,0.321,0.172a0.51065,0.51065,0,0,1-.371.223,0.50259,0.50259,0,0,0-.322.445,2.12388,2.12388,0,0,0,.322.967c0.396,0.717,4.108,7.102,4.554,7.82,0.471-1.041,3.613-6.459,4.108-7.277a2.41648,2.41648,0,0,0,.42-1.262,0.6118,0.6118,0,0,0-.395-0.693c-0.223-.074-0.371-0.123-0.371-0.248,0-.098.148-0.146,0.397-0.146,0.644,0,1.435.072,1.633,0.072,0.148,0,1.93-.072,2.4-0.072,0.174,0,.322.049,0.322,0.146,0,0.125-.124.199-0.322,0.199a2.377,2.377,0,0,0-1.139.346,4.70751,4.70751,0,0,0-1.311,1.262,78.76311,78.76311,0,0,0-4.727,7.871,5.90919,5.90919,0,0,0-.372,2.475v2.129c0,0.395,0,1.436.075,2.475a1.21125,1.21125,0,0,0,1.015,1.361,10.91815,10.91815,0,0,0,1.113.098,0.16058,0.16058,0,0,1,.198.15c0,0.123-.124.197-0.397,0.197-1.36,0-2.92-.074-3.043-0.074-0.125,0-1.684.074-2.426,0.074-0.272,0-.397-0.051-0.397-0.197a0.16107,0.16107,0,0,1,.198-0.15,3.8532,3.8532,0,0,0,.743-0.098,1.28631,1.28631,0,0,0,.767-1.361c0.074-1.039.074-2.08,0.074-2.475v-2.13H384.383Z"/><path class="cls-2" d="M224.75,26.43a4.58723,4.58723,0,0,1,2.67-.918,5.89523,5.89523,0,0,0,4.873-3.297c0.214-.459.353-0.934,0.608-1.375a4.1165,4.1165,0,0,1,3.139-2.31c1.117-.121,1.948.189,2.904-0.223,0.855-.416.938-0.479,0.938-0.479a5.85257,5.85257,0,0,1-1.494.23c-0.812.07-2.035-.244-2.786-0.215a5.52922,5.52922,0,0,0-3.26,1.184c-0.916.852-1.802,2.213-2.719,2.582a6.04122,6.04122,0,0,1-2.537.535,13.76056,13.76056,0,0,1-1.562-.283,7.00512,7.00512,0,0,0-2.706.094L233.357,8.424,219.252,18.537a4.24355,4.24355,0,0,1,.426-1.514c0.404-.877,1.645-1.769,2.068-3.275a4.95171,4.95171,0,0,0-.369-3.49,5.47674,5.47674,0,0,1-.429-3.131,4.79259,4.79259,0,0,1,1.239-2.324,3.68912,3.68912,0,0,0,1.239-1.955l0.154-.611a3.054,3.054,0,0,1-.677,1.068c-0.675.814-1.094,0.645-1.939,1.434a5.666,5.666,0,0,0-1.73,2.881c-0.256,1.5.224,1.826,0.106,3.193a3.9635,3.9635,0,0,1-.99,2.479,6.61685,6.61685,0,0,1-1.931,1.465,3.75615,3.75615,0,0,0-1.73,1.924L212.068,0l-2.51,16.685a3.47431,3.47431,0,0,1-.893-1.879c-0.1-.717-0.146-2.635-1.28-3.81a6.991,6.991,0,0,0-3.057-1.848,5.18568,5.18568,0,0,1-2.446-2.408,17.18415,17.18415,0,0,1-.506-3.162,4.16331,4.16331,0,0,0-.749-1.373,4.62184,4.62184,0,0,1,.306,1.647c-0.032.814-.391,2.141-0.338,2.818a3.97183,3.97183,0,0,0,1.424,2.92c1.256,1.158,1.77,1.022,2.551,2.551a3.54069,3.54069,0,0,1,.369,3.154,4.86724,4.86724,0,0,0-.223,2.287c0.135,0.619.183,0.955,0.183,0.955L190.804,8.424l10.437,13.523a3.60932,3.60932,0,0,1-2.115-.609,6.53393,6.53393,0,0,0-2.855-1.641,4.6594,4.6594,0,0,0-2.696.08,11.37533,11.37533,0,0,1-2.335.609,5.35511,5.35511,0,0,1-3.685-.812,8.16472,8.16472,0,0,0-2.157-1.545,6.19733,6.19733,0,0,0-1.102-.258,4.65894,4.65894,0,0,1,1.73,1.191c0.765,0.869.95,1.672,2.035,2.277a5.57467,5.57467,0,0,0,3.131.811,11.11446,11.11446,0,0,1,2.404-.152,4.351,4.351,0,0,1,2.641,1.219c0.934,1.146,1.423,2.105,1.883,2.531a3.86982,3.86982,0,0,0,1.286.781l-17.354,2.887s24.391-1.053,30.008-1.053,30.377,1.123,30.437,1.127Z"/><path class="cls-1" d="M427.506,89.618a2.613,2.613,0,1,1-2.608,2.615A2.5742,2.5742,0,0,1,427.506,89.618Zm0.009,4.979a2.366,2.366,0,1,0-2.352-2.363A2.31237,2.31237,0,0,0,427.515,94.597Zm0.664-.879a0.78883,0.78883,0,0,1-.153-0.342l-0.093-.383a0.58245,0.58245,0,0,0-.64-0.41h-0.239v1.135h-0.631V90.642h1.202a0.94941,0.94941,0,0,1,1.134.955,0.78387,0.78387,0,0,1-.853.793,0.68692,0.68692,0,0,1,.665.484l0.119,0.459a1.082,1.082,0,0,0,.188.385H428.179Zm-1.125-1.619h0.409c0.512,0,.674-0.17.674-0.461a0.493,0.493,0,0,0-.588-0.477h-0.495v0.938Z"/></svg>